#!OML:ASF F:\VICON\USERDATA\INSTALL\rory3\rory3.ASF
:FULLY-SPECIFIED
:DEGREES
1958
root 0.417164 14.7933 -1.13773 -7.78101 4.48257 -5.61835
lowerback 18.1179 1.56061 7.3193
upperback 10.1474 3.39907 11.1451
thorax 0.590709 1.71173 7.29031
lowerneck 1.58772 2.24814 -4.67804
upperneck 13.2125 2.69545 4.15879
head 3.92651 1.28826 2.29619
rclavicle 1.98785e-014 -2.54444e-014
rhumerus -0.695569 14.6872 -60.2897
rradius 74.5878
rwrist -12.8941
rhand -25.1317 16.461
rfingers 7.12502
rthumb 1.38432 -13.5143
lclavicle 1.98785e-014 -2.54444e-014
lhumerus -66.5609 -55.9287 72.1589
lradius 127.812
lwrist 57.2972
lhand -0.136148 36.9437
lfingers 7.12502
lthumb 25.46 65.2631
rfemur -14.8479 -4.13172 20.0218
rtibia 50.6086
rfoot -23.2519 -3.16867
rtoes -16.7646
lfemur -19.465 -5.60006 -11.2044
ltibia 54.873
lfoot -21.0931 -5.44986
ltoes -10.8982
1959
root 0.428751 14.7874 -1.14581 -7.83513 4.53524 -5.51155
lowerback 18.3633 1.58776 7.47614
upperback 10.0521 3.50804 11.1975
thorax 0.358363 1.76893 7.2297
lowerneck 1.93257 2.30667 -4.7002
upperneck 13.1739 2.73599 4.3928
head 3.84249 1.31456 2.37208
rclavicle 7.95139e-014 1.30403e-013
rhumerus -1.1622 14.2312 -60.4884
rradius 72.4111
rwrist -11.9552
rhand -25.6151 15.953
rfingers 7.12502
rthumb 0.917535 -14.0248
lclavicle 7.95139e-014 1.30403e-013
lhumerus -66.6559 -56.5544 69.2503
lradius 129.597
lwrist 59.4597
lhand 1.85033 37.1289
lfingers 7.12502
lthumb 27.3614 65.1627
rfemur -14.855 -4.26324 19.8143
rtibia 50.6881
rfoot -23.2243 -3.07242
rtoes -16.7835
lfemur -19.4783 -5.76896 -11.4231
ltibia 54.9635
lfoot -21.1398 -5.23642
ltoes -10.9842
1960
root 0.440547 14.7834 -1.15128 -7.87365 4.54094 -5.42414
lowerback 18.5059 1.61949 7.60182
upperback 10.0076 3.59811 11.2785
thorax 0.233385 1.81549 7.22746
lowerneck 2.19481 2.41311 -4.61365
upperneck 13.1616 2.85987 4.45818
head 3.78158 1.38076 2.37441
rclavicle -3.97569e-015 -3.18055e-015
rhumerus -1.39874 13.9775 -60.5294
rradius 70.1246
rwrist -11.7138
rhand -26.4633 15.4619
rfingers 7.12502
rthumb 0.0982339 -14.5178
lclavicle -3.97569e-015 -3.18055e-015
lhumerus -66.5523 -57.1195 66.2182
lradius 131.145
lwrist 62.1088
lhand 4.03892 37.7118
lfingers 7.12502
lthumb 29.4529 65.3967
rfemur -14.8699 -4.38263 19.6276
rtibia 50.76
rfoot -23.3072 -2.93321
rtoes -17.0205
lfemur -19.4591 -5.898 -11.6176
ltibia 55.0344
lfoot -21.202 -5.03022
ltoes -11.3271
1961
root 0.452278 14.78 -1.15701 -7.92378 4.5529 -5.33861
lowerback 18.5719 1.63833 7.65098
upperback 10.0557 3.63823 11.4163
thorax 0.245621 1.83446 7.34868
lowerneck 1.94233 2.47456 -4.54179
upperneck 13.4185 2.96153 4.32788
head 3.91787 1.43042 2.33181
rclavicle 5.40694e-014 6.67916e-014
rhumerus -1.48252 13.7598 -60.4504
rradius 68.0222
rwrist -12.3608
rhand -27.025 15.0155
rfingers 7.12502
rthumb -0.444244 -14.9637
lclavicle 5.40694e-014 6.67916e-014
lhumerus -66.4307 -57.4635 63.2755
lradius 132.57
lwrist 65.2514
lhand 6.43022 38.4434
lfingers 7.12502
lthumb 31.7332 65.7024
rfemur -14.8528 -4.48423 19.45
rtibia 50.8164
rfoot -23.3717 -2.8361
rtoes -17.3137
lfemur -19.4206 -6.05878 -11.7973
ltibia 55.0772
lfoot -21.2255 -4.97967
ltoes -11.2236
1962
root 0.464056 14.7755 -1.16288 -8.02023 4.56667 -5.4252
lowerback 18.6133 1.67669 7.80539
upperback 10.1267 3.71713 11.6516
thorax 0.295289 1.87492 7.51577
lowerneck 1.82243 2.51321 -4.60164
upperneck 13.4377 3.01578 4.36291
head 3.94397 1.45667 2.35931
rclavicle -1.11319e-014 -1.90833e-014
rhumerus -1.60983 13.5562 -60.2366
rradius 65.9296
rwrist -13.341
rhand -26.4354 14.5739
rfingers 7.12502
rthumb 0.125268 -15.4058
lclavicle -1.11319e-014 -1.90833e-014
lhumerus -65.8239 -57.828 60.0807
lradius 133.875
lwrist 68.8462
lhand 8.64187 39.401
lfingers 7.12502
lthumb 33.8371 66.2208
rfemur -14.7669 -4.5936 19.4579
rtibia 50.8397
rfoot -23.3922 -2.73238
rtoes -17.2312
lfemur -19.3803 -6.18585 -11.7805
ltibia 55.1196
lfoot -21.2381 -4.89861
ltoes -11.1136
1963
root 0.476854 14.7738 -1.16729 -8.11447 4.61496 -5.3302
lowerback 18.6411 1.78045 7.71342
upperback 10.2044 3.84283 11.9118
thorax 0.334816 1.93026 7.84296
lowerneck 2.05885 2.57798 -4.81495
upperneck 13.0875 3.08449 4.52983
head 3.76648 1.48692 2.44085
rclavicle 2.38542e-014 6.36111e-015
rhumerus -1.91395 13.2912 -59.9706
rradius 63.9319
rwrist -13.8534
rhand -26.0263 14.2115
rfingers 7.12502
rthumb 0.520342 -15.7677
lclavicle 2.38542e-014 6.36111e-015
lhumerus -64.7819 -58.284 56.8289
lradius 134.945
lwrist 72.3939
lhand 10.3754 40.3613
lfingers 7.12502
lthumb 35.4823 66.8034
rfemur -14.6562 -4.75785 19.2346
rtibia 50.8607
rfoot -23.4201 -2.55738
rtoes -17.1046
lfemur -19.2963 -6.28187 -11.9949
ltibia 55.1407
lfoot -21.2518 -4.74256
ltoes -11.2744
1964
root 0.490121 14.7731 -1.17284 -8.18462 4.62003 -5.16798
lowerback 18.7609 1.90093 7.71628
upperback 10.2313 4.02116 12.0538
thorax 0.278546 2.01702 7.96628
lowerneck 2.13811 2.62163 -4.83162
upperneck 12.8735 3.13322 4.63304
head 3.6715 1.51471 2.47208
rclavicle -2.22639e-014 -2.54444e-014
rhumerus -2.47207 12.8215 -59.8987
rradius 62.0672
rwrist -13.6551
rhand -25.9682 14.6261
rfingers 7.12502
rthumb 0.576433 -15.3529
lclavicle -2.22639e-014 -2.54444e-014
lhumerus -63.3841 -58.8949 53.388
lradius 135.781
lwrist 75.5064
lhand 12.0453 41.0286
lfingers 7.12502
lthumb 37.0636 67.0766
rfemur -14.5832 -4.86501 18.9434
rtibia 50.8764
rfoot -23.4208 -2.41008
rtoes -17.0619
lfemur -19.1999 -6.33515 -12.2791
ltibia 55.1559
lfoot -21.2709 -4.65963
ltoes -11.2712
1965
root 0.500466 14.7691 -1.1861 -8.21582 4.64939 -5.20271
lowerback 18.9947 1.95188 7.94359
upperback 10.2059 4.1677 12.1874
thorax 0.127091 2.09408 7.9529
lowerneck 1.83615 2.6703 -4.73532
upperneck 12.9358 3.20501 4.67184
head 3.74719 1.55834 2.47873
rclavicle 3.18055e-015 9.54166e-015
rhumerus -2.8986 12.4058 -59.872
rradius 60.0777
rwrist -12.6924
rhand -26.0185 15.2044
rfingers 7.12502
rthumb 0.527902 -14.7747
lclavicle 3.18055e-015 9.54166e-015
lhumerus -61.7693 -59.2934 49.8159
lradius 136.602
lwrist 77.9294
lhand 14.031 41.5015
lfingers 7.12502
lthumb 38.9388 67.039
rfemur -14.6216 -4.9273 18.9122
rtibia 50.902
rfoot -23.3979 -2.30784
rtoes -16.9679
lfemur -19.2631 -6.37501 -12.2875
ltibia 55.1832
lfoot -21.1997 -4.7093
ltoes -11.0397
1966
root 0.511099 14.7671 -1.19803 -8.17663 4.77019 -5.16788
lowerback 19.1438 1.99002 8.12359
upperback 10.1612 4.28098 12.2895
thorax -0.000813429 2.154 7.93825
lowerneck 1.56961 2.72212 -4.64319
upperneck 12.8991 3.28197 4.69673
head 3.78114 1.60388 2.478
rclavicle 7.31528e-014 1.17681e-013
rhumerus -3.18562 11.9519 -59.8345
rradius 57.931
rwrist -11.0477
rhand -26.0579 15.095
rfingers 7.12502
rthumb 0.489799 -14.8842
lclavicle 7.31528e-014 1.17681e-013
lhumerus -59.9852 -59.5718 46.2437
lradius 137.523
lwrist 79.7748
lhand 16.0035 41.7286
lfingers 7.12502
lthumb 40.7954 66.7096
rfemur -14.7202 -5.05156 18.8038
rtibia 50.9292
rfoot -23.3002 -2.31064
rtoes -16.8439
lfemur -19.4114 -6.47376 -12.3776
ltibia 55.1908
lfoot -21.1128 -4.742
ltoes -10.7932
1967
root 0.521268 14.7691 -1.20484 -8.14589 4.95731 -5.01246
lowerback 19.2813 2.00743 8.18461
upperback 10.0851 4.3517 12.3678
thorax -0.162299 2.18899 7.9709
lowerneck 1.49821 2.82388 -4.70149
upperneck 12.7244 3.41165 4.83346
head 3.72317 1.67159 2.53472
rclavicle -4.13472e-014 -1.11319e-013
rhumerus -3.50408 11.6355 -59.7594
rradius 55.738
rwrist -9.09041
rhand -26.3324 15.2252
rfingers 7.12502
rthumb 0.224686 -14.7544
lclavicle -4.13472e-014 -1.11319e-013
lhumerus -58.073 -59.7525 42.7416
lradius 138.482
lwrist 81.1815
lhand 17.5865 41.8678
lfingers 7.12502
lthumb 42.2805 66.3631
rfemur -14.7573 -5.23035 18.5453
rtibia 50.9476
rfoot -23.2462 -2.31968
rtoes -16.8708
lfemur -19.4917 -6.61256 -12.6233
ltibia 55.1669
lfoot -21.0899 -4.7427
ltoes -10.8905
